<?xml version="1.0" standalone="no"?>
<!DOCTYPE svg PUBLIC "-//W3C//DTD SVG 20010904//EN"
 "http://www.w3.org/TR/2001/REC-SVG-20010904/DTD/svg10.dtd">
<svg version="1.0" xmlns="http://www.w3.org/2000/svg"
 width="601.000000pt" height="669.000000pt" viewBox="0 0 601.000000 669.000000"
 preserveAspectRatio="xMidYMid meet">

<g transform="translate(0.000000,669.000000) scale(0.100000,-0.100000)"
fill="#000000" stroke="none">
<path d="M3515 6684 c-187 -20 -406 -67 -570 -124 -131 -45 -374 -167 -495
-247 -427 -283 -742 -689 -906 -1166 -81 -235 -113 -412 -121 -668 -7 -219 4
-355 43 -547 38 -193 136 -471 209 -597 l23 -41 -50 -12 c-118 -28 -183 -132
-157 -253 15 -67 43 -98 216 -231 127 -99 142 -113 131 -129 -25 -34 -127
-166 -227 -294 -67 -85 -108 -129 -119 -128 -9 2 -36 6 -59 9 -55 9 -119 -15
-160 -59 -24 -26 -1129 -1439 -1225 -1567 -51 -67 -54 -166 -7 -231 25 -36
419 -346 479 -377 54 -29 131 -25 184 7 37 23 1259 1578 1288 1640 24 51 22
109 -6 165 l-24 47 145 182 c79 100 158 200 176 221 l33 40 206 -161 c172
-134 214 -163 255 -171 114 -25 226 45 253 158 10 41 16 50 29 45 9 -4 61 -17
116 -30 515 -124 1065 -62 1550 175 521 255 938 713 1139 1254 96 256 140 507
140 801 0 229 -17 365 -69 571 -182 714 -698 1298 -1385 1567 -260 102 -496
147 -790 152 -113 2 -223 1 -245 -1z m380 -214 c668 -63 1251 -428 1601 -1000
142 -233 239 -507 279 -792 19 -134 19 -432 0 -566 -106 -747 -601 -1378
-1296 -1652 -256 -101 -487 -144 -774 -143 -346 1 -636 71 -945 229 -98 50
-166 96 -316 213 -105 82 -223 184 -263 227 -270 289 -448 654 -522 1069 -20
110 -23 163 -23 345 0 235 11 326 64 529 132 504 465 954 914 1235 374 234
845 347 1281 306z"/>
<path d="M3265 6236 c-179 -34 -350 -97 -560 -204 -421 -216 -776 -558 -840
-810 -17 -67 -9 -128 16 -126 21 2 1634 1093 1637 1108 8 35 -140 54 -253 32z"/>
<path d="M3090 5684 c-74 -11 -95 -19 -127 -47 -20 -17 -44 -50 -54 -72 -18
-38 -19 -109 -19 -1480 l0 -1441 23 -44 c12 -24 39 -58 60 -74 l39 -31 238 0
238 0 39 31 c21 16 48 50 61 74 l22 44 0 708 0 708 590 0 c560 0 594 1 665 20
169 45 275 102 382 204 120 114 192 233 234 391 30 111 30 287 0 400 -61 229
-213 416 -426 521 -174 86 -136 83 -1100 86 -467 2 -857 3 -865 2z m406 -70
c15 -11 37 -33 48 -48 21 -27 21 -31 24 -1464 l2 -1437 -22 -45 c-43 -83 -49
-85 -298 -85 -249 0 -255 2 -297 85 l-23 44 0 1418 c0 1523 -2 1455 48 1512
37 41 67 46 284 43 191 -2 209 -4 234 -23z m1399 2 c337 -100 565 -397 565
-738 0 -131 -21 -221 -82 -347 -43 -91 -61 -114 -141 -195 -136 -136 -284
-207 -464 -224 -43 -4 -322 -6 -620 -4 l-543 2 0 165 0 165 423 0 c259 0 446
4 483 11 150 27 282 125 348 260 125 254 -15 547 -304 633 -48 15 -115 17
-502 16 l-448 0 0 72 c0 89 -13 138 -47 178 l-25 31 648 -4 c586 -3 655 -5
709 -21z m-359 -310 c278 -74 415 -370 279 -602 -62 -105 -196 -194 -325 -214
-36 -5 -247 -10 -472 -10 l-408 0 0 420 0 420 438 0 c337 0 449 -3 488 -14z"/>
</g>
</svg>
